# xmcd
#
# Track frame offsets:
#	150
#	14890
#	40784
#	62956
#	90382
#	115797
#	138172
#	161023
#	176880
#	194906
#	209711
#	224918
#
# Disc length: 3127 seconds
#
# Revision: 0
# Processed by: cddbd v1.5.1PL2 Copyright (c) Steve Scherf et al.
# Submitted via: audiograbber 1.82.01
#
DISCID=c30c350c
DTITLE=Various Artist - Bombshell Baby Of Bombay
DYEAR=2006
DGENRE=Bollywood
TTITLE0=Asha Boshle - Mera Naam Hai Shabnam
TTITLE1=Mohammed Rafi - Jan Pahechan Ho
TTITLE2=Kishore Kumar, Asha Boshle - Ek Bottle Ho Bagal Main
TTITLE3=Asha Boshle and Mahendra Kapoor - One Two Three Baby
TTITLE4=Laxmikan-Pyarelal - Kahan Hai Woh Diwana
TTITLE5=Lata Mangeshkar and Manna Dey - Nineteen Fifty Six, Fifty Seven, Fifty Ei
TTITLE5=ght
TTITLE6=Kishore Kumar and Asha Boshle - Bum Pam Bum Pam Pa Ra Ra
TTITLE7=Asha Boshle - Sambhalo Sambhalo Apna Dil
TTITLE8=O.P. Nayyar - Title Music
TTITLE9=Anand Prayag and Chorus - Pretty Pretty Priya
TTITLE10=Bombshell Baby of Bombay - Iqbal Singh
TTITLE11=Kalyanji-Anandji - Title Music
EXTD=
EXTT0=
EXTT1=
EXTT2=
EXTT3=
EXTT4=
EXTT5=
EXTT6=
EXTT7=
EXTT8=
EXTT9=
EXTT10=
EXTT11=
PLAYORDER=
